<?xml version="1.0" standalone="no"?>
<!DOCTYPE svg PUBLIC "-//W3C//DTD SVG 20010904//EN"
 "http://www.w3.org/TR/2001/REC-SVG-20010904/DTD/svg10.dtd">
<svg version="1.0" xmlns="http://www.w3.org/2000/svg"
 width="1280.000000pt" height="1274.000000pt" viewBox="0 0 1280.000000 1274.000000"
 preserveAspectRatio="xMidYMid meet">
<metadata>
Created by potrace 1.15, written by Peter Selinger 2001-2017
</metadata>
<g transform="translate(0.000000,1274.000000) scale(0.100000,-0.100000)"
fill="#000000" stroke="none">
<path d="M8970 12729 c-47 -19 -72 -55 -159 -229 -143 -284 -312 -547 -503
-779 -118 -143 -141 -167 -183 -188 -58 -30 -273 -97 -391 -123 l-100 -22 -52
39 c-62 47 -131 73 -210 80 -70 6 -119 -15 -191 -82 -72 -67 -119 -95 -160
-95 -52 0 -69 16 -115 111 -23 46 -53 92 -67 102 -26 19 -27 18 -95 -9 -38
-15 -91 -41 -119 -57 -116 -69 -208 -107 -258 -107 -82 0 -132 38 -291 224
-208 241 -276 290 -406 290 -41 1 -88 -3 -105 -7 -28 -7 -38 -1 -167 121 -129
121 -140 130 -185 135 -66 7 -168 -9 -228 -37 -75 -35 -240 -167 -224 -179 2
-2 36 -24 74 -50 80 -53 122 -105 107 -134 -15 -28 -134 -138 -167 -155 -79
-40 -123 -32 -258 47 -136 80 -216 108 -307 109 -60 1 -84 -4 -118 -22 -40
-21 -42 -25 -42 -66 0 -25 9 -109 21 -188 19 -131 21 -219 5 -235 -10 -10 -67
13 -246 99 -288 140 -346 158 -525 165 l-130 5 -145 -50 c-214 -73 -272 -103
-361 -192 -54 -54 -87 -98 -117 -157 -23 -44 -42 -87 -42 -95 0 -10 50 -26
168 -54 l167 -39 -110 -38 c-210 -73 -345 -152 -345 -203 0 -13 60 -263 76
-315 6 -21 -177 -249 -305 -381 -100 -105 -214 -199 -304 -253 l-55 -33 -124
25 c-110 23 -139 25 -278 20 -85 -3 -162 -8 -171 -12 -19 -7 -163 -177 -256
-302 -96 -130 -129 -244 -100 -351 l14 -53 -190 -157 c-376 -310 -423 -351
-518 -449 -98 -101 -151 -177 -170 -247 -13 -49 -4 -56 76 -56 163 0 520 82
944 217 198 63 199 63 257 -17 38 -52 51 -102 37 -141 -10 -26 -9 -27 26 -33
89 -14 254 -18 355 -7 194 21 339 67 701 219 199 84 260 105 244 85 -8 -10
-68 -81 -133 -158 -195 -230 -263 -349 -239 -420 12 -37 33 -42 171 -44 120
-1 254 23 389 70 48 17 95 33 103 35 9 3 45 -28 94 -81 l78 -86 -31 -70 c-49
-109 -71 -217 -71 -346 0 -237 82 -434 250 -603 69 -68 176 -147 222 -162 4
-2 -5 -34 -21 -73 l-28 -70 -69 -7 c-291 -29 -547 -206 -682 -473 -127 -254
-114 -566 36 -818 122 -205 361 -367 595 -402 l46 -7 -14 -28 c-24 -46 -54
-175 -61 -263 -18 -221 63 -464 207 -621 29 -31 50 -58 48 -59 -2 -2 -30 -20
-62 -40 -222 -144 -377 -435 -377 -707 0 -192 77 -399 208 -557 94 -113 290
-234 437 -269 39 -9 76 -18 83 -20 9 -3 -6 -26 -41 -67 -102 -118 -152 -206
-193 -344 -23 -77 -27 -106 -27 -228 -1 -165 13 -234 78 -370 143 -304 428
-484 768 -486 276 -2 513 116 695 346 l32 40 -8 -35 c-12 -58 -8 -271 7 -330
144 -587 807 -853 1307 -524 93 61 204 174 256 259 146 241 166 544 54 799
l-24 55 54 16 c138 40 316 158 405 270 127 158 185 309 196 505 6 120 -13 245
-53 343 l-24 60 64 68 c112 118 190 278 216 441 15 94 8 258 -15 348 -21 83
-105 254 -150 307 l-34 40 86 53 c191 117 325 300 385 525 28 102 30 286 5
390 -18 73 -54 173 -69 189 -15 18 -8 26 21 26 15 0 68 7 116 15 321 56 574
281 675 600 30 98 39 300 16 408 -41 202 -165 401 -318 511 l-55 40 67 53
c138 110 244 275 289 449 11 40 18 46 150 128 77 47 142 86 145 86 2 0 -8 -37
-23 -83 -62 -184 -76 -267 -76 -462 1 -209 11 -260 81 -395 120 -232 290 -340
577 -365 l78 -7 -8 29 c-22 77 11 206 61 238 34 23 48 16 65 -31 36 -101 128
-190 272 -263 118 -60 249 -103 569 -187 347 -91 323 -79 359 -178 32 -91 51
-178 51 -241 0 -34 6 -47 38 -76 172 -162 388 -244 718 -273 l62 -5 5 42 c4
23 9 77 13 120 3 42 10 77 15 77 5 0 41 -19 80 -42 135 -80 359 -318 453 -480
16 -27 31 -48 35 -48 13 0 38 33 65 87 25 50 169 528 199 663 54 237 51 520
-7 714 -11 35 -31 64 -76 108 -100 99 -176 215 -261 397 l-49 104 55 -6 c33
-3 121 -32 230 -76 172 -69 270 -96 301 -84 13 5 15 15 9 51 -9 60 -49 169
-95 263 -82 162 -121 269 -151 411 -53 247 -127 440 -234 606 -34 52 -45 62
-69 62 -30 0 -131 23 -181 42 -95 35 -192 82 -377 181 l-208 112 113 6 c132 7
306 -4 413 -27 42 -8 78 -13 81 -10 3 3 -12 36 -32 73 -151 270 -320 424 -572
519 -37 14 -135 36 -218 49 -381 60 -614 137 -725 241 -62 58 -79 97 -56 123
37 41 174 81 329 97 37 4 67 10 67 13 -1 19 -371 270 -535 363 -391 222 -803
368 -1044 368 l-63 0 -82 71 c-152 134 -241 179 -358 182 l-63 2 -8 -80 c-5
-44 -10 -81 -12 -83 -6 -7 -207 79 -276 118 -265 150 -357 273 -423 570 l-25
115 32 35 c553 593 714 789 895 1089 131 217 282 551 282 622 0 103 -126 179
-230 138z m-1080 -1528 c0 -13 -199 -190 -289 -258 -78 -59 -240 -157 -248
-149 -8 8 19 90 45 139 35 65 101 123 218 191 83 49 108 58 182 70 48 7 88 14
90 15 1 0 2 -3 2 -8z m-65 -777 c15 -27 43 -71 62 -97 33 -47 33 -48 37 -180
5 -133 21 -224 65 -351 12 -33 21 -60 21 -62 0 -2 -19 6 -42 16 -43 19 -112
25 -155 14 -23 -6 -23 -7 14 -78 24 -44 63 -97 105 -138 l67 -68 -15 -45 c-18
-50 -16 -49 -64 -35 -19 6 -74 15 -122 21 -228 28 -485 -58 -659 -219 l-69
-64 0 80 c0 96 -21 202 -56 286 -14 33 -31 73 -37 88 -9 22 -2 50 56 206 72
196 164 413 203 479 18 32 42 51 102 84 126 69 242 143 327 208 l79 61 26 -79
c15 -43 39 -100 55 -127z"/>
</g>
</svg>
