<?xml version="1.0" standalone="no"?>
<!DOCTYPE svg PUBLIC "-//W3C//DTD SVG 20010904//EN"
 "http://www.w3.org/TR/2001/REC-SVG-20010904/DTD/svg10.dtd">
<svg version="1.0" xmlns="http://www.w3.org/2000/svg"
 width="1280.000000pt" height="912.000000pt" viewBox="0 0 1280.000000 912.000000"
 preserveAspectRatio="xMidYMid meet">
<metadata>
Created by potrace 1.15, written by Peter Selinger 2001-2017
</metadata>
<g transform="translate(0.000000,912.000000) scale(0.100000,-0.100000)"
fill="#000000" stroke="none">
<path d="M4660 9114 c-132 -16 -257 -54 -275 -84 -6 -10 34 -191 60 -267 27
-78 57 -133 90 -161 31 -28 33 -33 44 -143 l12 -114 -121 -215 c-210 -370
-482 -865 -618 -1125 -265 -505 -645 -1348 -1154 -2555 -66 -157 -123 -291
-127 -297 -11 -21 -130 43 -332 178 -263 175 -357 214 -581 240 -122 14 -338
7 -453 -15 -722 -140 -1169 -856 -1202 -1926 -9 -312 19 -537 98 -775 254
-762 960 -1321 1778 -1406 219 -23 508 -3 728 51 205 49 464 162 638 278 174
116 353 282 467 435 l36 47 58 -102 c222 -396 448 -650 743 -836 244 -154 540
-261 832 -303 137 -20 487 -17 614 5 314 54 596 164 843 330 487 325 802 800
897 1348 61 351 22 915 -89 1284 -190 634 -552 1017 -1066 1129 -101 22 -380
31 -492 16 -211 -28 -308 -69 -539 -224 -187 -126 -249 -163 -249 -147 0 6
-11 124 -25 263 -66 677 -146 1604 -185 2137 -35 488 -43 753 -36 1165 6 390
25 1047 31 1053 1 1 27 -7 56 -19 112 -44 289 -96 598 -174 213 -54 229 -62
362 -196 127 -127 238 -272 378 -496 184 -292 319 -497 407 -613 173 -230 438
-450 613 -508 73 -25 215 -105 403 -228 243 -159 344 -208 407 -198 53 8 141
-30 332 -146 235 -142 273 -154 320 -104 21 23 29 25 73 20 27 -3 121 -35 210
-71 327 -134 415 -156 456 -115 29 29 105 26 302 -10 89 -17 197 -33 238 -37
72 -5 77 -4 108 22 30 25 38 27 90 21 31 -3 113 -20 182 -36 158 -39 298 -50
334 -27 14 9 31 29 38 44 11 24 20 28 63 32 28 2 111 -2 187 -9 162 -15 202
-10 220 27 19 39 68 46 222 34 71 -6 177 -11 235 -11 98 0 110 2 161 29 70 37
137 54 335 86 356 58 416 86 370 176 -10 18 -77 94 -150 170 -140 145 -215
245 -215 287 0 48 -40 111 -100 157 -75 58 -100 90 -100 129 0 17 -9 45 -19
62 -18 30 -39 47 -196 163 -80 59 -103 85 -111 124 -8 43 -81 99 -255 196
-107 60 -166 113 -179 162 -13 48 -60 85 -170 136 -41 20 -115 54 -163 76
-103 48 -147 90 -147 142 0 48 -19 85 -44 85 -98 0 -582 209 -669 289 -62 56
-153 99 -391 181 -161 56 -326 105 -492 145 -160 39 -254 76 -254 98 0 24 -35
29 -225 34 -382 11 -1092 -45 -1600 -127 -381 -61 -734 -105 -1088 -134 l-169
-14 -151 59 c-261 103 -444 207 -580 330 l-59 52 3 181 3 181 -39 22 c-67 36
-176 54 -360 58 -93 2 -186 1 -205 -1z m64 -1961 c71 -647 126 -1105 171
-1418 56 -392 160 -1054 239 -1525 56 -332 80 -497 73 -502 -23 -14 -171 -21
-359 -15 -112 4 -236 2 -290 -4 -113 -12 -244 -55 -357 -115 -68 -36 -86 -42
-93 -31 -4 8 -28 42 -53 75 -146 194 -462 411 -705 483 -68 20 -103 23 -382
28 l-307 6 250 490 c431 843 809 1560 1042 1980 164 295 686 1174 697 1175 3
0 36 -282 74 -627z"/>
</g>
</svg>
