<?xml version="1.0" standalone="no"?>
<!DOCTYPE svg PUBLIC "-//W3C//DTD SVG 20010904//EN"
 "http://www.w3.org/TR/2001/REC-SVG-20010904/DTD/svg10.dtd">
<svg version="1.0" xmlns="http://www.w3.org/2000/svg"
 width="1280.000000pt" height="640.000000pt" viewBox="0 0 1280.000000 640.000000"
 preserveAspectRatio="xMidYMid meet">
<metadata>
Created by potrace 1.15, written by Peter Selinger 2001-2017
</metadata>
<g transform="translate(0.000000,640.000000) scale(0.100000,-0.100000)"
fill="#000000" stroke="none">
<path d="M12395 6223 c-133 -27 -295 -150 -356 -269 -13 -27 -40 -68 -59 -90
-19 -23 -57 -79 -84 -125 -161 -274 -369 -539 -542 -695 -191 -171 -304 -231
-559 -298 -499 -132 -725 -257 -1170 -646 -321 -281 -608 -477 -941 -643 -536
-267 -1054 -408 -1735 -473 -236 -23 -800 -23 -1064 0 -701 60 -1256 173
-1940 396 -951 310 -1915 784 -3057 1503 -109 68 -185 109 -220 118 -84 22
-257 17 -358 -10 -102 -28 -256 -99 -289 -135 l-24 -25 21 -88 c27 -115 108
-357 170 -514 253 -633 609 -1222 1069 -1772 164 -196 545 -577 742 -741 986
-822 2174 -1317 3561 -1481 340 -40 485 -48 880 -48 399 -1 546 8 859 49 965
125 1872 497 2606 1068 309 240 645 572 886 876 386 487 682 1048 788 1495 30
130 44 191 101 470 61 292 121 457 263 720 115 214 230 376 365 517 63 65 90
85 176 127 81 39 117 65 183 128 92 89 108 118 93 171 -9 33 -7 39 17 64 l26
27 -22 43 c-12 24 -64 84 -119 136 -116 110 -204 158 -267 145z"/>
</g>
</svg>
